<svg width="22" height="25" viewBox="0 0 22 25" fill="none" xmlns="http://www.w3.org/2000/svg">
<path d="M17.614 23.0777C16.3094 24.3435 14.87 24.1462 13.498 23.5494C12.0393 22.9406 10.7059 22.9021 9.16537 23.5494C7.24698 24.3772 6.22882 24.1366 5.07345 23.0777C-1.44956 16.3638 -0.486752 6.13642 6.92685 5.75139C8.72489 5.84764 9.98376 6.74524 11.0428 6.81984C12.617 6.49979 14.1238 5.58293 15.8087 5.70326C17.833 5.86689 19.347 6.66583 20.358 8.10248C16.1939 10.6052 17.1807 16.0918 21.0055 17.632C20.24 19.6413 19.258 21.6267 17.6116 23.0946L17.614 23.0777ZM10.8984 5.67919C10.7035 2.69521 13.1225 0.240644 15.905 0C16.2877 3.44121 12.7759 6.01609 10.8984 5.67919Z" fill="black"/>
</svg>
