<svg width="21" height="24" viewBox="0 0 21 24" fill="none" xmlns="http://www.w3.org/2000/svg">
<path d="M17.4889 23.0335C16.1383 24.2969 14.6482 24.0999 13.2278 23.5043C11.7177 22.8966 10.3372 22.8582 8.74242 23.5043C6.75639 24.3305 5.70233 24.0903 4.50622 23.0335C-2.24678 16.3324 -1.25003 6.12466 6.42497 5.74037C8.28641 5.83644 9.58966 6.73232 10.6861 6.80678C12.3158 6.48734 13.8757 5.57224 15.62 5.69233C17.7157 5.85566 19.2831 6.65306 20.3297 8.08695C16.0187 10.5849 17.0404 16.061 21 17.5982C20.2076 19.6037 19.1909 21.5852 17.4864 23.0503L17.4889 23.0335ZM10.5366 5.66831C10.3347 2.69005 12.8391 0.240183 15.7197 0C16.1159 3.43461 12.4802 6.00457 10.5366 5.66831Z" fill="white"/>
</svg>
