<svg width="183" height="31" viewBox="0 0 183 31" fill="none" xmlns="http://www.w3.org/2000/svg">
<path d="M6.99016 20.1418L5.64352 28.4137C5.57846 28.8014 5.62481 29.1996 5.77718 29.5619C5.92954 29.9243 6.18166 30.236 6.50421 30.4607C6.82681 30.6774 7.20209 30.8028 7.5902 30.8234C7.97831 30.844 8.36477 30.7592 8.70854 30.5779L15.6963 26.7485L22.6098 30.5779C22.9529 30.7685 23.3427 30.8586 23.7346 30.8377C24.1265 30.8168 24.5045 30.6859 24.8254 30.46C25.1462 30.234 25.3969 29.9222 25.5486 29.5602C25.7002 29.1983 25.7468 28.8009 25.6829 28.4137L24.3603 20.0667L30.0995 14.1673C30.3673 13.8922 30.5541 13.5487 30.6395 13.1744C30.725 12.8002 30.7057 12.4096 30.5839 12.0456C30.4621 11.6815 30.2425 11.3581 29.949 11.1106C29.6555 10.8631 29.2996 10.7012 28.9202 10.6425L21.0197 9.39413L17.5529 1.98687C17.3852 1.62718 17.1182 1.32283 16.7835 1.1096C16.4487 0.896356 16.0601 0.783081 15.6632 0.783081C15.2663 0.783081 14.8776 0.896356 14.5429 1.1096C14.2082 1.32283 13.9412 1.62718 13.7735 1.98687L10.2446 9.44122L2.40617 10.6435C2.02678 10.7022 1.67084 10.8641 1.37738 11.1116C1.08391 11.3591 0.864244 11.6825 0.742442 12.0466C0.620641 12.4106 0.601408 12.8012 0.686853 13.1754C0.772298 13.5497 0.959123 13.8932 1.22685 14.1683L6.99016 20.1418Z" fill="#DECB8D"/>
<path d="M44.8627 20.1418L43.5161 28.4137C43.451 28.8014 43.4974 29.1996 43.6497 29.5619C43.8021 29.9243 44.0542 30.236 44.3768 30.4607C44.6994 30.6774 45.0747 30.8028 45.4628 30.8234C45.8509 30.844 46.2373 30.7592 46.5811 30.5779L53.5688 26.7485L60.4824 30.5779C60.8254 30.7685 61.2152 30.8586 61.6071 30.8377C61.999 30.8168 62.3771 30.6859 62.6979 30.46C63.0188 30.234 63.2694 29.9222 63.4211 29.5602C63.5728 29.1983 63.6193 28.8009 63.5554 28.4137L62.2328 20.0667L67.9721 14.1673C68.2398 13.8922 68.4266 13.5487 68.5121 13.1744C68.5975 12.8002 68.5783 12.4096 68.4565 12.0456C68.3347 11.6815 68.115 11.3581 67.8216 11.1106C67.5281 10.8631 67.1722 10.7012 66.7928 10.6425L58.8923 9.39413L55.4255 1.98687C55.2577 1.62718 54.9908 1.32283 54.656 1.1096C54.3213 0.896356 53.9326 0.783081 53.5357 0.783081C53.1389 0.783081 52.7502 0.896356 52.4155 1.1096C52.0807 1.32283 51.8138 1.62718 51.646 1.98687L48.1171 9.44122L40.2787 10.6435C39.8993 10.7022 39.5434 10.8641 39.2499 11.1116C38.9565 11.3591 38.7368 11.6825 38.615 12.0466C38.4932 12.4106 38.474 12.8012 38.5594 13.1754C38.6449 13.5497 38.8317 13.8932 39.0994 14.1683L44.8627 20.1418Z" fill="#DECB8D"/>
<path d="M83.3364 20.1418L81.9897 28.4137C81.9247 28.8014 81.971 29.1996 82.1234 29.5619C82.2757 29.9243 82.5279 30.236 82.8504 30.4607C83.173 30.6774 83.5483 30.8028 83.9364 30.8234C84.3245 30.844 84.711 30.7592 85.0547 30.5779L92.0424 26.7485L98.956 30.5779C99.2991 30.7685 99.6889 30.8586 100.081 30.8377C100.473 30.8168 100.851 30.6859 101.172 30.46C101.492 30.234 101.743 29.9222 101.895 29.5602C102.046 29.1983 102.093 28.8009 102.029 28.4137L100.706 20.0667L106.446 14.1673C106.713 13.8922 106.9 13.5487 106.986 13.1744C107.071 12.8002 107.052 12.4096 106.93 12.0456C106.808 11.6815 106.589 11.3581 106.295 11.1106C106.002 10.8631 105.646 10.7012 105.266 10.6425L97.3659 9.39413L93.8991 1.98687C93.7313 1.62718 93.4644 1.32283 93.1297 1.1096C92.7949 0.896356 92.4063 0.783081 92.0094 0.783081C91.6125 0.783081 91.2238 0.896356 90.8891 1.1096C90.5543 1.32283 90.2874 1.62718 90.1197 1.98687L86.5907 9.44122L78.7524 10.6435C78.373 10.7022 78.017 10.8641 77.7236 11.1116C77.4301 11.3591 77.2104 11.6825 77.0886 12.0466C76.9668 12.4106 76.9476 12.8012 77.033 13.1754C77.1185 13.5497 77.3053 13.8932 77.573 14.1683L83.3364 20.1418Z" fill="#DECB8D"/>
<path d="M121.209 20.1418L119.862 28.4137C119.797 28.8014 119.844 29.1996 119.996 29.5619C120.148 29.9243 120.401 30.236 120.723 30.4607C121.046 30.6774 121.421 30.8028 121.809 30.8234C122.197 30.844 122.584 30.7592 122.927 30.5779L129.915 26.7485L136.829 30.5779C137.172 30.7685 137.562 30.8586 137.953 30.8377C138.345 30.8168 138.723 30.6859 139.044 30.46C139.365 30.234 139.616 29.9222 139.767 29.5602C139.919 29.1983 139.966 28.8009 139.902 28.4137L138.579 20.0667L144.318 14.1673C144.586 13.8922 144.773 13.5487 144.858 13.1744C144.944 12.8002 144.925 12.4096 144.803 12.0456C144.681 11.6815 144.461 11.3581 144.168 11.1106C143.874 10.8631 143.518 10.7012 143.139 10.6425L135.239 9.39413L131.772 1.98687C131.604 1.62718 131.337 1.32283 131.002 1.1096C130.668 0.896356 130.279 0.783081 129.882 0.783081C129.485 0.783081 129.097 0.896356 128.762 1.1096C128.427 1.32283 128.16 1.62718 127.992 1.98687L124.463 9.44122L116.625 10.6435C116.246 10.7022 115.89 10.8641 115.596 11.1116C115.303 11.3591 115.083 11.6825 114.961 12.0466C114.84 12.4106 114.82 12.8012 114.906 13.1754C114.991 13.5497 115.178 13.8932 115.446 14.1683L121.209 20.1418Z" fill="#DECB8D"/>
<path d="M159.082 20.1418L157.735 28.4137C157.67 28.8014 157.716 29.1996 157.869 29.5619C158.021 29.9243 158.273 30.236 158.596 30.4607C158.918 30.6774 159.294 30.8028 159.682 30.8234C160.07 30.844 160.456 30.7592 160.8 30.5779L167.788 26.7485L174.701 30.5779C175.044 30.7685 175.434 30.8586 175.826 30.8377C176.218 30.8168 176.596 30.6859 176.917 30.46C177.238 30.234 177.488 29.9222 177.64 29.5602C177.792 29.1983 177.838 28.8009 177.774 28.4137L176.452 20.0667L182.191 14.1673C182.459 13.8922 182.646 13.5487 182.731 13.1744C182.816 12.8002 182.797 12.4096 182.675 12.0456C182.554 11.6815 182.334 11.3581 182.04 11.1106C181.747 10.8631 181.391 10.7012 181.012 10.6425L173.111 9.39413L169.644 1.98687C169.477 1.62718 169.21 1.32283 168.875 1.1096C168.54 0.896356 168.152 0.783081 167.755 0.783081C167.358 0.783081 166.969 0.896356 166.634 1.1096C166.3 1.32283 166.033 1.62718 165.865 1.98687L162.336 9.44122L154.498 10.6435C154.118 10.7022 153.762 10.8641 153.469 11.1116C153.175 11.3591 152.956 11.6825 152.834 12.0466C152.712 12.4106 152.693 12.8012 152.778 13.1754C152.864 13.5497 153.051 13.8932 153.318 14.1683L159.082 20.1418Z" fill="#DECB8D"/>
</svg>
